<mxfile host="65bd71144e">
    <diagram id="NWHCdSxiK9OboTFNi9zR" name="Page-1">
        <mxGraphModel dx="1090" dy="1170" grid="0" gridSize="10" guides="1" tooltips="1" connect="1" arrows="1" fold="1" page="1" pageScale="1" pageWidth="850" pageHeight="1100" background="#FFFFFF" math="0" shadow="0">
            <root>
                <mxCell id="0"/>
                <mxCell id="1" parent="0"/>
                <mxCell id="8" value="" style="edgeStyle=none;html=1;strokeColor=#000000;fontSize=15;" parent="1" source="3" target="7" edge="1">
                    <mxGeometry relative="1" as="geometry"/>
                </mxCell>
                <mxCell id="3" value="Vision" style="whiteSpace=wrap;html=1;aspect=fixed;strokeColor=#000000;fontSize=15;" parent="1" vertex="1">
                    <mxGeometry x="234" y="235" width="100" height="100" as="geometry"/>
                </mxCell>
                <mxCell id="10" value="" style="edgeStyle=none;html=1;strokeColor=#000000;fontSize=15;" parent="1" source="7" target="9" edge="1">
                    <mxGeometry relative="1" as="geometry"/>
                </mxCell>
                <mxCell id="7" value="Feasibility Study" style="whiteSpace=wrap;html=1;aspect=fixed;strokeColor=#000000;fontSize=15;" parent="1" vertex="1">
                    <mxGeometry x="404" y="235" width="100" height="100" as="geometry"/>
                </mxCell>
                <mxCell id="21" value="" style="edgeStyle=none;html=1;fontColor=#000000;strokeColor=#000000;fontSize=15;" parent="1" source="9" target="20" edge="1">
                    <mxGeometry relative="1" as="geometry"/>
                </mxCell>
                <mxCell id="23" value="" style="edgeStyle=none;html=1;fontColor=#000000;strokeColor=#000000;fontSize=15;" parent="1" source="9" target="22" edge="1">
                    <mxGeometry relative="1" as="geometry"/>
                </mxCell>
                <mxCell id="9" value="Roadmapping" style="whiteSpace=wrap;html=1;aspect=fixed;strokeColor=#000000;fontSize=15;" parent="1" vertex="1">
                    <mxGeometry x="569" y="235" width="100" height="100" as="geometry"/>
                </mxCell>
                <mxCell id="13" value="" style="edgeStyle=none;html=1;strokeColor=#000000;fontSize=15;" parent="1" source="12" target="3" edge="1">
                    <mxGeometry relative="1" as="geometry"/>
                </mxCell>
                <mxCell id="12" value="START" style="ellipse;whiteSpace=wrap;html=1;aspect=fixed;strokeColor=#000000;fontSize=15;" parent="1" vertex="1">
                    <mxGeometry x="91" y="245" width="80" height="80" as="geometry"/>
                </mxCell>
                <mxCell id="18" value="&lt;h1&gt;&lt;font color=&quot;#000000&quot;&gt;Falcon 9 - Intellectual Property Process Map Top Level&lt;/font&gt;&lt;/h1&gt;" style="text;html=1;strokeColor=none;fillColor=none;spacing=5;spacingTop=-20;whiteSpace=wrap;overflow=hidden;rounded=0;" parent="1" vertex="1">
                    <mxGeometry x="117" y="20" width="650" height="43" as="geometry"/>
                </mxCell>
                <mxCell id="25" value="" style="edgeStyle=none;html=1;fontColor=#000000;strokeColor=#000000;fontSize=15;" parent="1" source="20" target="24" edge="1">
                    <mxGeometry relative="1" as="geometry"/>
                </mxCell>
                <mxCell id="20" value="Product Development&amp;nbsp;&lt;br style=&quot;font-size: 15px;&quot;&gt;and Testing" style="whiteSpace=wrap;html=1;aspect=fixed;strokeColor=#000000;fontSize=15;" parent="1" vertex="1">
                    <mxGeometry x="659" y="392" width="100" height="100" as="geometry"/>
                </mxCell>
                <mxCell id="28" value="" style="edgeStyle=none;html=1;fontColor=#000000;strokeColor=#000000;fontSize=15;" parent="1" source="22" target="26" edge="1">
                    <mxGeometry relative="1" as="geometry"/>
                </mxCell>
                <mxCell id="22" value="Marketing" style="whiteSpace=wrap;html=1;aspect=fixed;strokeColor=#000000;fontSize=15;" parent="1" vertex="1">
                    <mxGeometry x="495" y="392" width="100" height="100" as="geometry"/>
                </mxCell>
                <mxCell id="27" value="" style="edgeStyle=none;html=1;fontColor=#000000;strokeColor=#000000;fontSize=15;" parent="1" source="24" target="26" edge="1">
                    <mxGeometry relative="1" as="geometry"/>
                </mxCell>
                <mxCell id="24" value="Operational Readiness" style="whiteSpace=wrap;html=1;aspect=fixed;strokeColor=#000000;fontSize=15;" parent="1" vertex="1">
                    <mxGeometry x="595" y="550" width="100" height="100" as="geometry"/>
                </mxCell>
                <mxCell id="30" value="" style="edgeStyle=none;html=1;fontColor=#000000;strokeColor=#000000;fontSize=15;" parent="1" source="26" target="29" edge="1">
                    <mxGeometry relative="1" as="geometry"/>
                </mxCell>
                <mxCell id="26" value="Product Release" style="whiteSpace=wrap;html=1;aspect=fixed;strokeColor=#000000;fontSize=15;" parent="1" vertex="1">
                    <mxGeometry x="418" y="553" width="100" height="100" as="geometry"/>
                </mxCell>
                <mxCell id="32" value="" style="edgeStyle=none;html=1;fontColor=#000000;strokeColor=#000000;fontSize=15;" parent="1" source="29" target="31" edge="1">
                    <mxGeometry relative="1" as="geometry"/>
                </mxCell>
                <mxCell id="29" value="Ongoing Product Enhancement" style="whiteSpace=wrap;html=1;aspect=fixed;strokeColor=#000000;fontSize=15;" parent="1" vertex="1">
                    <mxGeometry x="243" y="553" width="100" height="100" as="geometry"/>
                </mxCell>
                <mxCell id="31" value="&lt;font color=&quot;#ffffff&quot; style=&quot;font-size: 15px;&quot;&gt;END&lt;/font&gt;" style="ellipse;whiteSpace=wrap;html=1;aspect=fixed;fontColor=#000000;strokeColor=#000000;fontSize=15;" parent="1" vertex="1">
                    <mxGeometry x="106" y="563" width="80" height="80" as="geometry"/>
                </mxCell>
                <mxCell id="56" value="" style="curved=1;endArrow=classic;html=1;strokeColor=#000000;exitX=0;exitY=0.5;exitDx=0;exitDy=0;entryX=0.5;entryY=1;entryDx=0;entryDy=0;fontSize=15;" edge="1" parent="1" source="12" target="31">
                    <mxGeometry width="50" height="50" relative="1" as="geometry">
                        <mxPoint x="100" y="165" as="sourcePoint"/>
                        <mxPoint x="385" y="786" as="targetPoint"/>
                        <Array as="points">
                            <mxPoint x="59" y="215"/>
                            <mxPoint x="693" y="158"/>
                            <mxPoint x="809" y="355"/>
                            <mxPoint x="794" y="682"/>
                            <mxPoint x="452" y="739"/>
                        </Array>
                    </mxGeometry>
                </mxCell>
                <mxCell id="57" value="&lt;font style=&quot;font-size: 15px;&quot;&gt;Information Security&lt;/font&gt;" style="edgeLabel;html=1;align=center;verticalAlign=middle;resizable=0;points=[];fontSize=15;" vertex="1" connectable="0" parent="56">
                    <mxGeometry x="-0.544" y="-3" relative="1" as="geometry">
                        <mxPoint as="offset"/>
                    </mxGeometry>
                </mxCell>
                <mxCell id="58" value="Information Security" style="edgeLabel;html=1;align=center;verticalAlign=middle;resizable=0;points=[];fontSize=15;" vertex="1" connectable="0" parent="56">
                    <mxGeometry x="0.6599" y="-24" relative="1" as="geometry">
                        <mxPoint x="1" as="offset"/>
                    </mxGeometry>
                </mxCell>
            </root>
        </mxGraphModel>
    </diagram>
</mxfile>